<svg width="177" height="154" viewBox="0 0 177 154" fill="none" xmlns="http://www.w3.org/2000/svg">
<path fill-rule="evenodd" clip-rule="evenodd" d="M154.376 100.413C156.73 93.0297 158 85.1632 158 77C158 64.9866 155.249 53.6157 150.342 43.4832L150.536 43H176.264V132.856H154.376V100.413ZM134.435 132.441L154.376 78.968V100.413C150.452 112.722 143.516 123.687 134.435 132.441ZM134.001 132.856C120.196 145.96 101.537 154 81 154C38.4741 154 4 119.526 4 77C4 57.6956 11.1039 40.0504 22.8402 26.536H23.808V98.856H45.696V26.536H69.504V9H44.8427C55.6236 3.2556 67.9316 0 81 0C111.513 0 137.88 17.7477 150.342 43.4832L125.576 105.208L100.36 43H74.504V132.856H96.392V78.84L116.616 132.856H134.001ZM44.8427 9C36.4669 13.4629 29.0128 19.4281 22.8402 26.536H0V9H44.8427ZM134.001 132.856C134.146 132.718 134.291 132.58 134.435 132.441L134.28 132.856H134.001Z" fill="white"/>
</svg>
